<?xml version="1.0" encoding="utf-8"?>
<!-- Generator: Adobe Illustrator 26.2.1, SVG Export Plug-In . SVG Version: 6.00 Build 0)  -->
<svg version="1.1" id="Layer_1" xmlns="http://www.w3.org/2000/svg" xmlns:xlink="http://www.w3.org/1999/xlink" x="0px" y="0px"
	 viewBox="0 0 165.5 143.3" style="enable-background:new 0 0 165.5 143.3;" xml:space="preserve">
<style type="text/css">
	.st0{fill:#E10A17;}
</style>
<g>
	<polygon class="st0" points="74.2,143.3 82.8,128.5 139.9,128.5 136.1,121.9 86.6,121.9 86.6,121.9 119.9,64.3 119.9,64.3 
		140.8,100.5 123.7,100.5 119.9,93.9 112.2,107.1 144.6,107.1 165.5,143.3 	"/>
	<polygon class="st0" points="91.3,14.8 91.3,14.8 82.8,0 0,143.3 17.1,143.3 	"/>
	<polygon class="st0" points="95.1,21.4 24.7,143.3 66.6,143.3 78.9,121.9 61.8,121.9 58,128.5 50.4,128.5 95.1,51 98.9,57.6 
		98.9,57.7 95.1,64.3 95.1,64.3 103.7,79.1 116,57.7 	"/>
</g>
</svg>
